<mxfile modified="2021-01-06T22:49:14.514Z" host="app.diagrams.net" agent="5.0 (Windows NT 10.0; Win64; x64) AppleWebKit/537.36 (KHTML, like Gecko) Chrome/87.0.4280.88 Safari/537.36 Edg/87.0.664.66" etag="-gZfpnGCrHiVijZL2P1K" version="14.1.8" type="github">
  <diagram id="d1ab7348-05c3-a1e3-ca4d-12c340fd6b49" name="Page-1">
    <mxGraphModel dx="1422" dy="794" grid="1" gridSize="10" guides="1" tooltips="1" connect="1" arrows="1" fold="1" page="1" pageScale="1" pageWidth="1169" pageHeight="827" background="#ffffff" math="0" shadow="0">
      <root>
        <mxCell id="0" />
        <mxCell id="1" parent="0" />
        <mxCell id="1UAeS94XYWsx7C8TmQg1-168" style="edgeStyle=orthogonalEdgeStyle;rounded=0;orthogonalLoop=1;jettySize=auto;html=1;exitX=1;exitY=0.5;exitDx=0;exitDy=0;entryX=0;entryY=0.5;entryDx=0;entryDy=0;" edge="1" parent="1" source="1UAeS94XYWsx7C8TmQg1-163" target="1UAeS94XYWsx7C8TmQg1-166">
          <mxGeometry relative="1" as="geometry" />
        </mxCell>
        <mxCell id="1UAeS94XYWsx7C8TmQg1-163" value="" style="strokeColor=#dddddd;shadow=1;strokeWidth=1;rounded=1;absoluteArcSize=1;arcSize=2;" vertex="1" parent="1">
          <mxGeometry x="130" y="160" width="140" height="60" as="geometry" />
        </mxCell>
        <mxCell id="1UAeS94XYWsx7C8TmQg1-164" value="&lt;font color=&quot;#000000&quot;&gt;Bank Marketing&lt;br&gt;&lt;/font&gt;" style="dashed=0;connectable=0;html=1;fillColor=#5184F3;strokeColor=none;shape=mxgraph.gcp2.hexIcon;prIcon=cloud_sql;part=1;labelPosition=right;verticalLabelPosition=middle;align=left;verticalAlign=middle;spacingLeft=5;fontColor=#999999;fontSize=12;" vertex="1" parent="1UAeS94XYWsx7C8TmQg1-163">
          <mxGeometry y="0.5" width="44" height="39" relative="1" as="geometry">
            <mxPoint x="5" y="-19.5" as="offset" />
          </mxGeometry>
        </mxCell>
        <mxCell id="1UAeS94XYWsx7C8TmQg1-171" style="edgeStyle=orthogonalEdgeStyle;rounded=0;orthogonalLoop=1;jettySize=auto;html=1;exitX=0.5;exitY=1;exitDx=0;exitDy=0;" edge="1" parent="1" source="1UAeS94XYWsx7C8TmQg1-166" target="1UAeS94XYWsx7C8TmQg1-169">
          <mxGeometry relative="1" as="geometry" />
        </mxCell>
        <mxCell id="1UAeS94XYWsx7C8TmQg1-166" value="" style="strokeColor=#dddddd;shadow=1;strokeWidth=1;rounded=1;absoluteArcSize=1;arcSize=2;" vertex="1" parent="1">
          <mxGeometry x="330" y="160" width="140" height="60" as="geometry" />
        </mxCell>
        <mxCell id="1UAeS94XYWsx7C8TmQg1-167" value="&lt;font color=&quot;#000000&quot;&gt;Datastore&lt;br&gt;&lt;/font&gt;" style="dashed=0;connectable=0;html=1;fillColor=#5184F3;strokeColor=none;shape=mxgraph.gcp2.hexIcon;prIcon=cloud_storage;part=1;labelPosition=right;verticalLabelPosition=middle;align=left;verticalAlign=middle;spacingLeft=5;fontColor=#999999;fontSize=12;" vertex="1" parent="1UAeS94XYWsx7C8TmQg1-166">
          <mxGeometry y="0.5" width="44" height="39" relative="1" as="geometry">
            <mxPoint x="5" y="-19.5" as="offset" />
          </mxGeometry>
        </mxCell>
        <mxCell id="1UAeS94XYWsx7C8TmQg1-176" style="edgeStyle=orthogonalEdgeStyle;rounded=0;orthogonalLoop=1;jettySize=auto;html=1;exitX=0.5;exitY=1;exitDx=0;exitDy=0;entryX=0.5;entryY=0;entryDx=0;entryDy=0;" edge="1" parent="1" source="1UAeS94XYWsx7C8TmQg1-169" target="1UAeS94XYWsx7C8TmQg1-172">
          <mxGeometry relative="1" as="geometry" />
        </mxCell>
        <mxCell id="1UAeS94XYWsx7C8TmQg1-169" value="" style="strokeColor=#dddddd;shadow=1;strokeWidth=1;rounded=1;absoluteArcSize=1;arcSize=2;" vertex="1" parent="1">
          <mxGeometry x="330" y="290" width="170" height="60" as="geometry" />
        </mxCell>
        <mxCell id="1UAeS94XYWsx7C8TmQg1-170" value="&lt;font color=&quot;#000000&quot;&gt;Auto ML Experiment&lt;br&gt;&lt;/font&gt;" style="dashed=0;connectable=0;html=1;fillColor=#5184F3;strokeColor=none;shape=mxgraph.gcp2.hexIcon;prIcon=cloud_datalab;part=1;labelPosition=right;verticalLabelPosition=middle;align=left;verticalAlign=middle;spacingLeft=5;fontColor=#999999;fontSize=12;" vertex="1" parent="1UAeS94XYWsx7C8TmQg1-169">
          <mxGeometry y="0.5" width="44" height="39" relative="1" as="geometry">
            <mxPoint x="5" y="-19.5" as="offset" />
          </mxGeometry>
        </mxCell>
        <mxCell id="1UAeS94XYWsx7C8TmQg1-179" style="edgeStyle=orthogonalEdgeStyle;rounded=0;orthogonalLoop=1;jettySize=auto;html=1;exitX=1;exitY=0.5;exitDx=0;exitDy=0;" edge="1" parent="1" source="1UAeS94XYWsx7C8TmQg1-172" target="1UAeS94XYWsx7C8TmQg1-177">
          <mxGeometry relative="1" as="geometry" />
        </mxCell>
        <mxCell id="1UAeS94XYWsx7C8TmQg1-172" value="" style="strokeColor=#dddddd;shadow=1;strokeWidth=1;rounded=1;absoluteArcSize=1;arcSize=2;" vertex="1" parent="1">
          <mxGeometry x="345" y="414" width="140" height="60" as="geometry" />
        </mxCell>
        <mxCell id="1UAeS94XYWsx7C8TmQg1-173" value="&lt;font color=&quot;#000000&quot;&gt;Choose the &lt;br&gt;best model&lt;/font&gt;" style="dashed=0;connectable=0;html=1;fillColor=#5184F3;strokeColor=none;shape=mxgraph.gcp2.hexIcon;prIcon=cloud_datalab;part=1;labelPosition=right;verticalLabelPosition=middle;align=left;verticalAlign=middle;spacingLeft=5;fontColor=#999999;fontSize=12;" vertex="1" parent="1UAeS94XYWsx7C8TmQg1-172">
          <mxGeometry y="0.5" width="44" height="39" relative="1" as="geometry">
            <mxPoint x="5" y="-19.5" as="offset" />
          </mxGeometry>
        </mxCell>
        <mxCell id="1UAeS94XYWsx7C8TmQg1-175" style="edgeStyle=orthogonalEdgeStyle;rounded=0;orthogonalLoop=1;jettySize=auto;html=1;entryX=1;entryY=0.5;entryDx=0;entryDy=0;" edge="1" parent="1" source="1UAeS94XYWsx7C8TmQg1-174" target="1UAeS94XYWsx7C8TmQg1-169">
          <mxGeometry relative="1" as="geometry" />
        </mxCell>
        <mxCell id="1UAeS94XYWsx7C8TmQg1-174" value="Compute&#xa;Engine" style="html=1;fillColor=#5184F3;strokeColor=none;verticalAlign=top;labelPosition=center;verticalLabelPosition=bottom;align=center;spacingTop=-6;fontSize=11;fontStyle=1;fontColor=#999999;shape=mxgraph.gcp2.hexIcon;prIcon=compute_engine" vertex="1" parent="1">
          <mxGeometry x="570" y="291" width="66" height="58.5" as="geometry" />
        </mxCell>
        <mxCell id="1UAeS94XYWsx7C8TmQg1-177" value="" style="strokeColor=#dddddd;shadow=1;strokeWidth=1;rounded=1;absoluteArcSize=1;arcSize=2;" vertex="1" parent="1">
          <mxGeometry x="680" y="414" width="120" height="60" as="geometry" />
        </mxCell>
        <mxCell id="1UAeS94XYWsx7C8TmQg1-178" value="Cloud&#xa;Endpoints" style="dashed=0;connectable=0;html=1;fillColor=#5184F3;strokeColor=none;shape=mxgraph.gcp2.hexIcon;prIcon=cloud_endpoints;part=1;labelPosition=right;verticalLabelPosition=middle;align=left;verticalAlign=middle;spacingLeft=5;fontColor=#999999;fontSize=12;" vertex="1" parent="1UAeS94XYWsx7C8TmQg1-177">
          <mxGeometry y="0.5" width="44" height="39" relative="1" as="geometry">
            <mxPoint x="5" y="-19.5" as="offset" />
          </mxGeometry>
        </mxCell>
        <mxCell id="1UAeS94XYWsx7C8TmQg1-180" value="Deploy the model" style="text;html=1;align=center;verticalAlign=middle;resizable=0;points=[];autosize=1;" vertex="1" parent="1">
          <mxGeometry x="515" y="420" width="110" height="20" as="geometry" />
        </mxCell>
        <mxCell id="1UAeS94XYWsx7C8TmQg1-183" style="edgeStyle=orthogonalEdgeStyle;rounded=0;orthogonalLoop=1;jettySize=auto;html=1;exitX=0.5;exitY=0;exitDx=0;exitDy=0;" edge="1" parent="1" source="1UAeS94XYWsx7C8TmQg1-181">
          <mxGeometry relative="1" as="geometry">
            <mxPoint x="750" y="480" as="targetPoint" />
          </mxGeometry>
        </mxCell>
        <mxCell id="1UAeS94XYWsx7C8TmQg1-181" value="" style="strokeColor=#dddddd;shadow=1;strokeWidth=1;rounded=1;absoluteArcSize=1;arcSize=2;" vertex="1" parent="1">
          <mxGeometry x="690" y="570" width="120" height="44" as="geometry" />
        </mxCell>
        <mxCell id="1UAeS94XYWsx7C8TmQg1-182" value="Consume&amp;nbsp;&lt;br&gt;through API" style="dashed=0;connectable=0;html=1;fillColor=#757575;strokeColor=none;shape=mxgraph.gcp2.logs_api;part=1;labelPosition=right;verticalLabelPosition=middle;align=left;verticalAlign=middle;spacingLeft=5;fontSize=12;" vertex="1" parent="1UAeS94XYWsx7C8TmQg1-181">
          <mxGeometry y="0.5" width="30" height="32" relative="1" as="geometry">
            <mxPoint x="5" y="-16" as="offset" />
          </mxGeometry>
        </mxCell>
      </root>
    </mxGraphModel>
  </diagram>
</mxfile>
